Coordinates
version=1
nRows=27
nColumns=12
inDegrees=yes

Units are S.I. units (second, meters, Newtons, ...)
Angles are in degrees

endheader
time	SC_y	SC_z	SC_x	AC_y	AC_z	AC_x	GH_y	GH_z	GH_yy	EL_x	PS_y
       0.0              -57.24          10.51           77.6          46.13         -5.368          2.974          55.15          55.87         -134.2           81.5          50.18
   0.01637              -57.24          10.52           77.6          46.13          -5.37          2.976          55.16          55.87         -134.2           81.5          50.18
   0.03274              -57.24          10.52           77.6          46.13         -5.372          2.977          55.17          55.88         -134.2          81.49          50.17
   0.04912              -57.23          10.53          77.59          46.13         -5.374          2.979          55.18          55.89         -134.2          81.49          50.17
   0.06549              -57.23          10.53          77.58          46.13         -5.377          2.981          55.19          55.89         -134.2          81.48          50.16
   0.08186              -57.23          10.54          77.58          46.13         -5.379          2.982          55.21           55.9         -134.1          81.47          50.16
   0.09823              -57.22          10.54          77.57          46.13         -5.382          2.984          55.22           55.9         -134.1          81.47          50.15
    0.1146              -57.22          10.55          77.57          46.13         -5.384          2.986          55.24          55.91         -134.1          81.46          50.15
     0.131              -57.22          10.55          77.56          46.12         -5.387          2.989          55.25          55.92         -134.0          81.45          50.14
    0.1474              -57.21          10.56          77.55          46.12         -5.391          2.991          55.27          55.93         -134.0          81.45          50.13
    0.1637              -57.21          10.57          77.54          46.12         -5.394          2.993          55.29          55.94         -134.0          81.44          50.13
    0.1801              -57.21          10.58          77.53          46.12         -5.398          2.996          55.31          55.95         -134.0          81.43          50.12
    0.1965               -57.2          10.58          77.53          46.12         -5.402          2.999          55.33          55.96         -133.9          81.42          50.11
    0.2128               -57.2          10.59          77.51          46.12         -5.406          3.002          55.36          55.97         -133.9          81.41           50.1
    0.2292              -57.19           10.6           77.5          46.12         -5.411          3.006          55.38          55.98         -133.8           81.4          50.09
    0.2456              -57.19          10.61          77.49          46.12         -5.416          3.009          55.41          55.99         -133.8          81.38          50.08
     0.262              -57.18          10.63          77.48          46.12         -5.421          3.013          55.44          56.01         -133.7          81.37          50.07
    0.2783              -57.17          10.64          77.46          46.11         -5.427          3.018          55.47          56.02         -133.7          81.36          50.06
    0.2947              -57.17          10.65          77.45          46.11         -5.434          3.023          55.51          56.04         -133.6          81.34          50.04
    0.3111              -57.16          10.67          77.43          46.11         -5.441          3.028          55.55          56.06         -133.6          81.32          50.03
    0.3274              -57.15          10.68          77.41          46.11         -5.449          3.034          55.59          56.08         -133.5           81.3          50.01
    0.3438              -57.14           10.7          77.39          46.11         -5.457           3.04          55.64           56.1         -133.4          81.28          49.99
    0.3602              -57.13          10.72          77.37           46.1         -5.467          3.047          55.69          56.13         -133.3          81.26          49.97
    0.3766              -57.12          10.75          77.34           46.1         -5.477          3.055          55.75          56.15         -133.2          81.23          49.95
    0.3929               -57.1          10.77          77.32           46.1         -5.489          3.064          55.81          56.18         -133.1           81.2          49.93
    0.4093              -57.09           10.8          77.29          46.09         -5.502          3.073          55.89          56.22         -133.0          81.17           49.9
    0.4257              -57.07          10.83          77.25          46.09         -5.517          3.084          55.97          56.26         -132.8          81.13          49.87
